<svg width="69" height="46" viewBox="0 0 69 46" fill="none" xmlns="http://www.w3.org/2000/svg">
<g id="Frame 41">
<path id="Vector" d="M21.5 40.3333C31.6252 40.3333 39.8333 32.1252 39.8333 22C39.8333 16.7056 37.5891 11.9353 34 8.58867C30.7252 5.53505 26.3308 3.66663 21.5 3.66663C11.3747 3.66663 3.16663 11.8747 3.16663 22C3.16663 32.1252 11.3747 40.3333 21.5 40.3333Z" stroke="#FA3653" stroke-width="4" stroke-linecap="round" stroke-linejoin="round"/>
<path id="Vector_2" d="M21.5 33C27.5751 33 32.5 28.0751 32.5 22C32.5 15.9249 27.5751 11 21.5 11C15.4249 11 10.5 15.9249 10.5 22C10.5 28.0751 15.4249 33 21.5 33Z" stroke="#FFA538" stroke-width="4" stroke-linecap="round" stroke-linejoin="round"/>
<path id="Vector_3" d="M21.5 25.6667C23.5251 25.6667 25.1667 24.0251 25.1667 22C25.1667 19.975 23.5251 18.3334 21.5 18.3334C19.475 18.3334 17.8334 19.975 17.8334 22C17.8334 24.0251 19.475 25.6667 21.5 25.6667Z" stroke="#FFCF94" stroke-width="4" stroke-linecap="round" stroke-linejoin="round"/>
<path id="Vector 1" d="M59 16.5H44C41.7909 16.5 40 18.2909 40 20.5V22.5C40 24.7091 41.7909 26.5 44 26.5H59C61.2091 26.5 63 24.7091 63 22.5V20.5C63 18.2909 61.2091 16.5 59 16.5Z" stroke="#FA3653" stroke-width="4"/>
<path id="Vector 2" d="M36.5452 10.842C38.0375 13.0412 40.2102 14.722 42.8091 15.3889C43.9528 15.6825 45.0761 15.9067 46.2587 15.9827C47.1493 16.0399 48.032 16.0625 48.9236 16.0625C49.3316 16.0625 49.7396 16.0625 50.1476 16.0625C50.3738 16.0625 50.5919 16.0028 50.8195 16" stroke="#FA3653" stroke-width="3" stroke-linecap="round"/>
<path id="Vector 3" d="M37.5 31.7205C38.9923 29.5213 41.1651 27.8405 43.7639 27.1736C44.9077 26.88 46.0309 26.6558 47.2135 26.5798C48.1041 26.5226 48.9869 26.5 49.8785 26.5C50.2865 26.5 50.6944 26.5 51.1024 26.5C51.3286 26.5 51.5468 26.5597 51.7743 26.5625" stroke="#FA3653" stroke-width="3" stroke-linecap="round"/>
</g>
</svg>
